<svg xmlns="http://www.w3.org/2000/svg" viewBox="0 0 512 512">
  <!-- Clock face -->
  <circle cx="256" cy="256" r="240" fill="#ffffff" stroke="#444444" stroke-width="16"/>
  
  <!-- Clock markings -->
  <line x1="256" y1="40" x2="256" y2="80" stroke="#444444" stroke-width="8" stroke-linecap="round"/>
  <line x1="256" y1="432" x2="256" y2="472" stroke="#444444" stroke-width="8" stroke-linecap="round"/>
  <line x1="40" y1="256" x2="80" y2="256" stroke="#444444" stroke-width="8" stroke-linecap="round"/>
  <line x1="432" y1="256" x2="472" y2="256" stroke="#444444" stroke-width="8" stroke-linecap="round"/>
  
  <!-- Clock hands -->
  <line x1="256" y1="256" x2="256" y2="120" stroke="#444444" stroke-width="12" stroke-linecap="round"/>
  <line x1="256" y1="256" x2="360" y2="256" stroke="#444444" stroke-width="8" stroke-linecap="round"/>
  
  <!-- Center dot -->
  <circle cx="256" cy="256" r="16" fill="#444444"/>
  
  <!-- Calendar/Settings icon -->
  <rect x="340" y="340" width="120" height="120" rx="10" ry="10" fill="#3498db" stroke="#2980b9" stroke-width="4"/>
  <rect x="360" y="360" width="80" height="20" fill="white"/>
  <rect x="360" y="390" width="20" height="20" fill="white"/>
  <rect x="390" y="390" width="20" height="20" fill="white"/>
  <rect x="420" y="390" width="20" height="20" fill="white"/>
  <rect x="360" y="420" width="20" height="20" fill="white"/>
  <rect x="390" y="420" width="20" height="20" fill="white"/>
  <rect x="420" y="420" width="20" height="20" fill="white"/>
</svg>
